<?xml version="1.0" encoding="UTF-8"?>
<svg width="209px" height="209px" viewBox="0 0 209 209" version="1.1" xmlns="http://www.w3.org/2000/svg" xmlns:xlink="http://www.w3.org/1999/xlink">
    <title>cosmos copy</title>
    <g id="UI" stroke="none" stroke-width="1" fill="none" fill-rule="evenodd">
        <g id="Login/Reset-Password" transform="translate(-365.000000, -423.000000)" fill="#FFFFFF" fill-rule="nonzero">
            <path d="M570.031804,426.546055 C582.803135,437.22586 564.746816,468.710508 515.862847,521 L508.510133,509.547357 C516.915956,502.767734 522.581879,497.581018 525.507903,493.98721 C543.221802,472.230599 549.38415,458.520648 543.994947,452.857356 C537.449138,445.978634 523.10388,452.052993 500.959173,471.080431 C508.3658,474.681321 514.83214,479.51088 520.358354,485.56962 C520.723164,485.935302 520.905569,486.209564 520.905569,486.392405 C521.63519,487.123769 522,488.037975 522,489.135021 C522,490.232068 521.543987,491.237693 520.631961,492.151899 L520.631961,492.151899 L519.811138,492.974684 L509.687651,501.476793 L509.623472,501.483565 C509.443318,501.519682 509.191104,501.700266 508.866828,502.025316 C508.319613,502.57384 507.498789,502.848101 506.404358,502.848101 C505.492333,502.848101 504.489104,502.482419 503.394673,501.751055 C503.029863,501.385373 502.847458,501.111111 502.847458,500.92827 C499.199354,497.271449 494.867232,494.345992 489.85109,492.151899 C484.834948,489.957806 479.499596,488.860759 473.845036,488.860759 C468.190476,488.860759 462.900726,489.957806 457.975787,492.151899 C453.050847,494.345992 448.718725,497.271449 444.979419,500.92827 C441.240113,504.585091 438.32163,508.927567 436.223971,513.955696 C434.126312,518.983826 433.077482,524.331927 433.077482,530 C433.077482,535.668073 434.126312,540.970464 436.223971,545.907173 C438.32163,550.843882 441.240113,555.186357 444.979419,558.934599 C448.23904,562.20201 451.949139,564.844193 456.109715,566.861148 L499,540 C487.712124,551.132809 477.138582,561.255243 467.279375,570.3673 C469.410957,570.699138 471.599224,570.864979 473.845036,570.864979 C479.499596,570.864979 484.743745,569.859353 489.577482,567.848101 C494.411219,565.83685 498.652139,563.002813 502.300242,559.345992 L502.300242,559.345992 L502.847458,558.797468 L503.007993,558.646345 C503.721793,558.015729 504.671509,557.700422 505.857143,557.700422 C506.951574,557.700422 507.772397,557.974684 508.319613,558.523207 C508.502018,558.706048 508.638822,558.797468 508.730024,558.797468 C508.821227,558.797468 508.958031,558.888889 509.140436,559.07173 L509.140436,559.07173 L519.263923,567.57384 L520.084746,568.396624 L520.225806,568.547773 C520.861386,569.275887 521.179177,570.32255 521.179177,571.687764 C521.179177,572.78481 520.814366,573.699015 520.084746,574.43038 C520.084746,574.613221 520.039144,574.704641 519.947942,574.704641 C519.856739,574.704641 519.811138,574.796062 519.811138,574.978903 C513.974173,581.195499 507.17958,586.086498 499.427361,589.651899 C491.675141,593.2173 483.1477,595 473.845036,595 C465.501887,595 457.635555,593.5263 450.246041,590.5789 L459.94413,577.079622 C413.148045,619.457737 383.691178,637.310739 371.57353,630.638628 C356.375001,622.270151 367.531637,593.850525 405.043439,545.37975 C405.750658,549.760079 406.46748,553.046104 407.193906,555.237823 C407.920332,557.429542 409.211612,560.202213 411.067744,563.555838 C395.762672,584.683176 391.074448,597.951078 397.003073,603.359544 C401.945919,607.86872 415.027843,601.060547 436.248846,582.935026 C433.325754,580.842093 430.581083,578.510293 428.015738,575.938819 C422.087571,569.996484 417.436239,563.094233 414.061743,555.232068 C410.687248,547.369902 409,538.959212 409,530 C409,521.040788 410.687248,512.630098 414.061743,504.767932 C417.436239,496.905767 422.087571,490.003516 428.015738,484.061181 C433.943906,478.118847 440.829701,473.456399 448.673123,470.07384 C456.516546,466.69128 464.907183,465 473.845036,465 C478.004738,465 482.027673,465.365581 485.913843,466.096743 L485,466.877487 C528.916538,429.310061 557.260473,415.86625 570.031804,426.546055 Z" id="cosmos-copy"></path>
        </g>
    </g>
</svg>