<?xml version="1.0" encoding="UTF-8"?>
<svg width="40px" height="46px" viewBox="0 0 40 46" version="1.1" xmlns="http://www.w3.org/2000/svg" xmlns:xlink="http://www.w3.org/1999/xlink">
    <title>Combined Shape</title>
    <g id="Components" stroke="none" stroke-width="1" fill="none" fill-rule="evenodd">
        <g id="side-bar-copy" transform="translate(-48.000000, -12.000000)" fill="#EB714B">
            <g id="insight_logo" transform="translate(48.000000, 12.117228)">
                <path d="M12.731997,0 C18.7795338,0 23.8422901,4.21634647 25.140988,9.86976155 C33.4264212,11.3439914 39.7174894,18.5835805 39.7174894,27.2925273 L39.7174894,27.2925273 L39.7176438,38.9974535 C39.2380497,38.2193857 38.1692082,37.145432 37.9589354,36.6719656 L37.9589354,36.6719656 L37.330809,35.2260468 C37.1716837,34.6544045 36.878558,33.7885345 36.7110577,32.7713475 C36.5686823,28.8707293 36.0648204,24.3101907 33.5620508,22.3977206 C31.1441208,20.5500801 21.1491286,21.6369121 20.4742804,21.7127187 L20.4383971,21.7167938 L19.5422702,20.287688 C18.8387687,19.1023708 18.076642,17.9674927 17.3731405,16.7821755 C16.5691387,15.4791673 15.8153871,14.2350046 15.0113853,12.9824354 C14.4418841,12.0913459 13.3698817,11.8055247 12.4905048,12.2678825 C11.6027529,12.7890858 11.2845022,13.7474273 11.7283781,14.7393949 C13.6797574,19.2705009 15.6311367,23.7511679 17.4736407,28.2738674 C17.641141,28.7950707 17.8002664,29.3078675 17.8002664,29.8626968 C17.7918914,30.9723554 17.5322658,31.8886645 16.5356386,31.3926807 C15.3798861,30.8210384 12.9008807,29.2238025 12.3062544,29.1061114 C11.3431273,28.8371033 10.3130001,28.6689732 9.27449779,29.0556724 C8.81387179,29.232209 8.26112058,29.7281927 8.05174513,30.148518 C7.63299421,30.9891685 7.79211956,31.5608108 8.63799641,31.930697 C10.5391256,32.796567 12.2895044,33.9818841 13.9142579,35.3185184 C14.5256343,35.8313152 15.4552613,36.428177 16.0582626,36.9914128 C16.9627646,37.8068438 17.9091416,38.243982 18.981144,38.5802422 L18.981144,38.5802422 L19.0775212,38.612197 C19.7235387,38.8314825 23.487276,40.1888736 26.4097852,42.9768442 C27.0711079,43.6037749 28.0598014,44.5536678 28.9985236,44.9892772 L22.0211817,44.9888351 C12.2477807,44.9888351 4.32487387,37.0659282 4.32487387,27.2925273 C4.32487387,25.7312973 4.52704861,24.2172878 4.90664527,22.7752515 C1.92043406,20.4462727 0,16.8134056 0,12.731997 C0,5.70030923 5.70030923,0 12.731997,0 Z M12.7815379,3.86418587 C7.91134165,3.86418587 3.96326755,7.81225996 3.96326755,12.6824562 C3.96326755,15.0783434 4.91875528,17.2510644 6.46946598,18.8403547 C7.01876257,17.832953 7.6619507,16.88552 8.388007,16.0092379 C7.75211264,15.1090369 7.37825976,14.0091654 7.37825976,12.8219758 C7.37825976,9.76580054 9.85577932,7.28828098 12.9119546,7.28828098 C14.9859933,7.28828098 16.793532,8.42930377 17.7410855,10.1178645 C18.8094859,9.85188467 19.9171794,9.6834736 21.0533591,9.62223564 C19.8096296,6.25997063 16.5753665,3.86418587 12.7815379,3.86418587 Z" id="Combined-Shape"></path>
            </g>
        </g>
    </g>
</svg>